<?xml version="1.0" encoding="UTF-8" standalone="no"?>
<svg
   xmlns:dc="http://purl.org/dc/elements/1.1/"
   xmlns:cc="http://creativecommons.org/ns#"
   xmlns:rdf="http://www.w3.org/1999/02/22-rdf-syntax-ns#"
   xmlns:svg="http://www.w3.org/2000/svg"
   xmlns="http://www.w3.org/2000/svg"
   xmlns:xlink="http://www.w3.org/1999/xlink"
   xmlns:sodipodi="http://sodipodi.sourceforge.net/DTD/sodipodi-0.dtd"
   xmlns:inkscape="http://www.inkscape.org/namespaces/inkscape"
   inkscape:version="1.0 (1.0+r73+1)"
   sodipodi:docname="logo.svg"
   id="svg1009"
   viewBox="0 0 8670 8670"
   style="shape-rendering:geometricPrecision; text-rendering:geometricPrecision; image-rendering:optimizeQuality; fill-rule:evenodd; clip-rule:evenodd"
   version="1.1"
   height="86.6986mm"
   width="86.6986mm"
   xml:space="preserve"><metadata
   id="metadata1013"><rdf:RDF><cc:Work
       rdf:about=""><dc:format>image/svg+xml</dc:format><dc:type
         rdf:resource="http://purl.org/dc/dcmitype/StillImage" /><dc:title></dc:title></cc:Work></rdf:RDF></metadata><sodipodi:namedview
   inkscape:current-layer="svg1009"
   inkscape:window-maximized="1"
   inkscape:window-y="38"
   inkscape:window-x="74"
   inkscape:cy="64.82628"
   inkscape:cx="186.54327"
   inkscape:zoom="0.4439921"
   showgrid="false"
   id="namedview1011"
   inkscape:window-height="1006"
   inkscape:window-width="1846"
   inkscape:pageshadow="2"
   inkscape:pageopacity="0"
   guidetolerance="10"
   gridtolerance="10"
   objecttolerance="10"
   borderopacity="1"
   bordercolor="#666666"
   pagecolor="#ffffff" />
 <defs
   id="defs980">
  <style
   id="style942"
   type="text/css">
   <![CDATA[
    .fil5 {fill:#E6E6E6}
    .fil0 {fill:white}
    .fil4 {fill:url(#id6)}
    .fil1 {fill:url(#id7)}
    .fil3 {fill:url(#id8)}
    .fil2 {fill:url(#id9)}
   ]]>
  </style>
      <mask
   id="id0">
  <linearGradient
   y2="1716.82"
   x2="3081.78"
   y1="4223.44"
   x1="3081.78"
   gradientUnits="userSpaceOnUse"
   id="id1">
   <stop
   id="stop944"
   style="stop-opacity:1; stop-color:white"
   offset="0" />
   <stop
   id="stop946"
   style="stop-opacity:0.501961; stop-color:white"
   offset="0.109804" />
   <stop
   id="stop948"
   style="stop-opacity:0; stop-color:white"
   offset="1" />
  </linearGradient>
       <rect
   id="rect951"
   height="3937"
   width="2526"
   y="1002"
   x="1819"
   style="fill:url(#id1)" />
      </mask>
      <mask
   id="id2">
  <linearGradient
   y2="1718.58"
   x2="5588.09"
   y1="4223.82"
   x1="5588.09"
   gradientUnits="userSpaceOnUse"
   id="id3">
   <stop
   id="stop954"
   style="stop-opacity:1; stop-color:white"
   offset="0" />
   <stop
   id="stop956"
   style="stop-opacity:0.501961; stop-color:white"
   offset="0.109804" />
   <stop
   id="stop958"
   style="stop-opacity:0; stop-color:white"
   offset="1" />
  </linearGradient>
       <rect
   id="rect961"
   height="3934"
   width="2526"
   y="1004"
   x="4325"
   style="fill:url(#id3)" />
      </mask>
    <mask
   id="id4">
  <linearGradient
   y2="6632.57"
   x2="8546.53"
   y1="3431.61"
   x1="2093.77"
   gradientUnits="userSpaceOnUse"
   id="id5">
   <stop
   id="stop964"
   style="stop-opacity:1; stop-color:white"
   offset="0" />
   <stop
   id="stop966"
   style="stop-opacity:0; stop-color:white"
   offset="1" />
  </linearGradient>
     <rect
   id="rect969"
   height="7296"
   width="6719"
   y="1384"
   x="1960"
   style="fill:url(#id5)" />
    </mask>
  <linearGradient
   y2="2971.18"
   x2="4334.93"
   y1="2971.18"
   x1="6841.25"
   gradientUnits="userSpaceOnUse"
   id="id6">
   <stop
   id="stop972"
   style="stop-opacity:1; stop-color:#3F5EFB"
   offset="0" />
   <stop
   id="stop974"
   style="stop-opacity:1; stop-color:#FC466B"
   offset="1" />
  </linearGradient>
  <linearGradient
   y2="4334.93"
   x2="1828.61"
   y1="4334.93"
   x1="4334.93"
   xlink:href="#id6"
   gradientUnits="userSpaceOnUse"
   id="id7">
  </linearGradient>
  <linearGradient
   y2="2970.12"
   x2="1828.62"
   y1="2970.12"
   x1="4334.93"
   xlink:href="#id6"
   gradientUnits="userSpaceOnUse"
   id="id8">
  </linearGradient>
  <linearGradient
   y2="4335.99"
   x2="4334.93"
   y1="4335.99"
   x1="6841.25"
   xlink:href="#id6"
   gradientUnits="userSpaceOnUse"
   id="id9">
  </linearGradient>
 </defs>
 <g
   style="display:none"
   inkscape:label="background"
   id="layer3"
   inkscape:groupmode="layer"><rect
     y="0"
     x="0"
     id="rect983"
     ry="1967"
     rx="1967"
     height="8670"
     width="8670"
     class="fil0"
     style="clip-rule:evenodd;fill-rule:evenodd;image-rendering:optimizeQuality;shape-rendering:geometricPrecision;text-rendering:geometricPrecision" /></g><g
   id="Layer_x0020_1">
  <metadata
   id="CorelCorpID_0Corel-Layer" />
  <g
   id="_280352192">
   
   <g
   id="g1003">
    <g
   id="g989">
     <path
   id="path985"
   d="M3305 1987l1026 -593 4 2 0 -382 -4 -2 -679 392 -679 392 0 719 0 34 340 -108 0 -454 -8 0 0 0zm337 2492l693 -220 0 -348 -1092 347c54,257 132,495 236,717 54,115 115,225 183,331 174,272 396,519 668,745 2,-1 3,-3 5,-4l0 -453c-3,3 -5,5 -8,8 -95,-94 -182,-193 -260,-295 -81,-105 -152,-216 -216,-331 -85,-156 -155,-321 -209,-497zm530 248c0,59 31,111 78,139l-18 36 -103 202 206 0 0 -540c-90,0 -163,73 -163,163zm-686 909c-388,-1 -772,-3 -1159,2 392,779 1036,1459 2008,2020l0 -386c0,0 0,0 0,0 -605,-373 -1078,-804 -1426,-1304l413 0c268,337 604,638 1012,910 0,0 1,-1 1,-1l0 -406c-1,0 -2,1 -3,2 -343,-252 -624,-529 -846,-837zm-618 -1607l1467 -466 0 -347 -1825 580c14,177 37,349 68,514l-336 0c-42,-240 -68,-490 -78,-752l2171 -690 0 -347 -527 167 -495 157 -340 108 -1144 364c0,462 44,904 141,1324l684 1c31,113 67,224 107,331l-352 -1 -349 0c35,112 73,222 117,330l2 6c371,-5 727,-4 1097,-3 -59,-107 -112,-217 -159,-331 -120,-290 -202,-604 -249,-945z"
   class="fil1" />
     <path
   id="path987"
   d="M4335 1396l1023 591 0 0 -1 0 0 858 -1022 -324 0 347 1289 410 881 280 0 7 326 107c7,-117 10,-235 10,-355l-1152 -366 0 -964 0 -191 -679 -392 -675 -390 0 382zm596 3306c-140,332 -338,628 -596,892l0 453c323,-277 579,-589 769,-940l322 100c-251,486 -614,906 -1091,1264l0 406c731,-494 1245,-1114 1541,-1861 -315,-105 -630,-210 -945,-314zm-433 25c0,-90 -73,-163 -163,-163l0 540 206 0 -103 -202 -19 -36c47,-28 79,-80 79,-139zm1236 -367c-466,-149 -930,-300 -1399,-449l0 348c387,123 767,246 1153,370l158 50 315 101 316 101c-321,987 -971,1787 -1942,2391l0 386c1119,-646 1889,-1540 2257,-2676 34,-104 64,-210 91,-318l-316 -101 -316 -101 -317 -102zm-488 -855l-911 -289 0 347 1130 360 332 105 0 1 319 102 319 102 319 102c19,-108 36,-219 49,-331l-322 -103 -323 -104 -912 -292z"
   class="fil2" />
    </g>
    <g
   id="g995">
     <path
   id="path991"
   d="M3305 1987l1026 -593 4 2 0 -382 -4 -2 -679 392 -679 392 0 719 0 34 340 -108 0 -454 -8 0 0 0zm1030 2941c-39,0 -77,0 -116,-1l13 -25 18 -36c-47,-28 -78,-80 -78,-139 0,-90 73,-163 163,-163l0 364zm-522 -25c-131,-13 -261,-30 -389,-52 -77,-186 -137,-383 -181,-593l1092 -347 0 348 -693 220c46,149 103,290 171,424zm-773 -132c-128,-32 -255,-68 -380,-109l-6 -20 -55 0c-237,-81 -466,-178 -687,-289 -57,-333 -83,-679 -83,-1036l1144 -364 340 -108 495 -157 527 -167 0 347 -2171 690c10,262 36,512 78,752l336 0c-31,-165 -54,-337 -68,-514l1825 -580 0 347 -1467 466c36,263 93,510 172,742z"
   class="fil3" />
     <path
   id="path993"
   d="M4335 1396l1023 591 0 0 -1 0 0 858 -1022 -324 0 347 1289 410 881 280 0 7 326 106c7,-116 10,-234 10,-354l-1152 -366 0 -964 0 -191 -679 -392 -675 -390 0 382zm1987 3153c-171,68 -346,128 -526,178l-150 -48 -158 -50c-386,-124 -766,-247 -1153,-370l0 -348c469,149 933,300 1399,449l317 102 271 87zm-989 286c-163,31 -329,54 -497,70 34,-66 66,-134 95,-203 134,44 268,89 402,133zm-883 92c-38,1 -76,1 -115,1l0 -364c90,0 163,73 163,163 0,59 -32,111 -79,139l19 36 12 25zm796 -1422l-911 -289 0 347 1130 360 332 105 0 1 319 102 319 102 319 102c19,-108 36,-219 49,-331l-322 -103 -323 -104 -912 -292z"
   class="fil4" />
    </g>
    <g
   id="g1001">
     
     
    </g>
   </g>
   
  </g>
 </g>
<g
   style="display:none"
   inkscape:label="shadow"
   id="layer1"
   inkscape:groupmode="layer"><path
     style="clip-rule:evenodd;fill-rule:evenodd;image-rendering:optimizeQuality;shape-rendering:geometricPrecision;text-rendering:geometricPrecision"
     id="path1005"
     mask="url(#id4)"
     d="m 4335,2521 1022,324 v -858 h 1 l -1023,-591 -4,-2 -1026,593 h 8 v 454 l -340,108 452,261 z M 2761,4973 c -38,-101 -72,-205 -101,-311 -2,-7 -4,-14 -6,-20 h -55 l -629,-1 332,331 z M 6841,3317 c 0,120 -3,238 -10,354 l -326,-106 v -7 l -881,-280 -1289,-410 -522,166 -1649,524 c 10,262 36,512 78,752 h 336 c -31,-165 -54,-337 -68,-514 l 1825,-580 911,289 912,292 323,104 322,103 c -13,112 -30,223 -49,331 l -319,-102 -319,-102 -319,-102 v -1 L 5465,3923 4335,3563 2868,4029 c 7,49 14,97 22,144 8,49 17,97 27,145 33,157 74,308 123,453 63,185 141,363 236,534 -370,-1 -726,-2 -1097,3 l 328,328 c 326,-2 651,-1 979,0 222,308 503,585 846,837 l 3,-2 c 477,-358 840,-778 1091,-1264 l -322,-100 c -190,351 -446,663 -769,940 l -5,4 c -415,-345 -713,-737 -906,-1200 128,22 258,39 389,52 130,257 301,488 514,699 l 8,-8 c 204,-209 371,-438 501,-689 34,-66 66,-134 95,-203 134,44 268,89 402,133 181,61 362,121 543,181 -296,747 -810,1367 -1541,1861 l -1,1 C 3926,6606 3590,6305 3322,5968 h -413 c 348,500 821,931 1426,1304 971,-604 1621,-1404 1942,-2391 l -316,-101 -165,-53 -150,-48 -158,-50 C 5102,4505 4722,4382 4335,4259 v -348 c 469,149 933,300 1399,449 l 317,102 271,87 45,14 316,101 c -27,108 -57,214 -91,318 -368,1136 -1138,2030 -2257,2676 l 1753,1012 h 615 c 1082,0 1967,-885 1967,-1967 V 3517 L 5689,1796 v 191 964 z M 3642,4479 c 0,2 1,4 1,5 0,-1 -1,-3 -1,-5 z m 693,2793 z m 163,-2545 c 0,59 -32,111 -79,139 l 19,36 12,25 91,177 h -206 -206 l 90,-177 31,-61 c -47,-28 -78,-80 -78,-139 0,-90 73,-163 163,-163 90,0 163,73 163,163 z"
     class="fil5" /></g><g
   style="display:none"
   inkscape:label="light"
   id="layer2"
   inkscape:groupmode="layer"><path
     style="clip-rule:evenodd;fill-rule:evenodd;image-rendering:optimizeQuality;shape-rendering:geometricPrecision;text-rendering:geometricPrecision"
     id="path997"
     mask="url(#id0)"
     d="m 3305,1987 1026,-593 4,2 v -382 l -4,-2 -679,392 -679,392 v 719 34 l 340,-108 v -454 z m 1030,2941 c -39,0 -77,0 -116,-1 l 13,-25 18,-36 c -47,-28 -78,-80 -78,-139 0,-90 73,-163 163,-163 z m -522,-25 c -131,-13 -261,-30 -389,-52 -77,-186 -137,-383 -181,-593 l 1092,-347 v 348 l -693,220 c 46,149 103,290 171,424 z m -773,-132 c -128,-32 -255,-68 -380,-109 l -6,-20 h -55 c -237,-81 -466,-178 -687,-289 -57,-333 -83,-679 -83,-1036 l 1144,-364 340,-108 495,-157 527,-167 v 347 l -2171,690 c 10,262 36,512 78,752 h 336 c -31,-165 -54,-337 -68,-514 l 1825,-580 v 347 l -1467,466 c 36,263 93,510 172,742 z"
     class="fil0" /><path
     style="clip-rule:evenodd;fill-rule:evenodd;image-rendering:optimizeQuality;shape-rendering:geometricPrecision;text-rendering:geometricPrecision"
     id="path999"
     mask="url(#id2)"
     d="m 4335,1396 1023,591 v 0 h -1 v 858 L 4335,2521 v 347 l 1289,410 881,280 v 7 l 326,106 c 7,-116 10,-234 10,-354 L 5689,2951 v -964 -191 l -679,-392 -675,-390 z m 1987,3153 c -171,68 -346,128 -526,178 l -150,-48 -158,-50 C 5102,4505 4722,4382 4335,4259 v -348 c 469,149 933,300 1399,449 l 317,102 z m -989,286 c -163,31 -329,54 -497,70 34,-66 66,-134 95,-203 134,44 268,89 402,133 z m -883,92 c -38,1 -76,1 -115,1 v -364 c 90,0 163,73 163,163 0,59 -32,111 -79,139 l 19,36 z m 796,-1422 -911,-289 v 347 l 1130,360 332,105 v 1 l 319,102 319,102 319,102 c 19,-108 36,-219 49,-331 l -322,-103 -323,-104 z"
     class="fil0" /></g></svg>
